<svg xmlns="http://www.w3.org/2000/svg" width="18" height="18" viewBox="0 0 18 18">
  <path id="pencil-alt-solid" d="M17.528,5.068,15.907,6.689a.422.422,0,0,1-.6,0l-3.9-3.9a.422.422,0,0,1,0-.6L13.028.568a1.691,1.691,0,0,1,2.387,0l2.113,2.113A1.685,1.685,0,0,1,17.528,5.068ZM10.015,3.581.782,12.814.037,17.085a.845.845,0,0,0,.977.977l4.272-.749,9.232-9.232a.422.422,0,0,0,0-.6l-3.9-3.9a.427.427,0,0,0-.6,0ZM4.386,12.023a.49.49,0,0,1,0-.7L9.8,5.912a.492.492,0,1,1,.7.7L5.082,12.023a.49.49,0,0,1-.7,0ZM3.117,14.979H4.8v1.276l-2.268.4L1.443,15.559l.4-2.268H3.117Z" transform="translate(-0.024 -0.075)" fill="#064ebc"/>
</svg>
