<svg xmlns="http://www.w3.org/2000/svg" width="50" height="57.143" viewBox="0 0 50 57.143">
  <path id="trash-can-regular" d="M17.857,44.643a1.786,1.786,0,0,1-3.571,0V21.429a1.786,1.786,0,0,1,3.571,0Zm8.929,0a1.786,1.786,0,0,1-3.571,0V21.429a1.786,1.786,0,0,1,3.571,0Zm8.929,0a1.786,1.786,0,0,1-3.571,0V21.429a1.786,1.786,0,0,1,3.571,0ZM35.435,2.783l4.1,6.145h7.79a2.679,2.679,0,0,1,0,5.357h-.893V48.214A8.926,8.926,0,0,1,37.5,57.143h-25a8.928,8.928,0,0,1-8.929-8.929V14.286H2.679a2.679,2.679,0,0,1,0-5.357h7.792l4.094-6.145A6.256,6.256,0,0,1,19.766,0H30.234a6.256,6.256,0,0,1,5.2,2.783ZM16.908,8.929H33.092L30.971,5.754a.9.9,0,0,0-.737-.4H19.766c-.29,0-.67.15-.737.4ZM8.929,48.214A3.57,3.57,0,0,0,12.5,51.786h25a3.568,3.568,0,0,0,3.571-3.571V14.286H8.929Z" fill="#f3115e"/>
</svg>
