<svg xmlns="http://www.w3.org/2000/svg" width="18" height="20.571" viewBox="0 0 18 20.571">
  <path id="trash-alt-regular" d="M10.768,16.714h.964a.482.482,0,0,0,.482-.482V7.554a.482.482,0,0,0-.482-.482h-.964a.482.482,0,0,0-.482.482v8.679A.482.482,0,0,0,10.768,16.714Zm6.589-13.5H14.046L12.68.936A1.929,1.929,0,0,0,11.025,0H6.975A1.929,1.929,0,0,0,5.321.936L3.954,3.214H.643A.643.643,0,0,0,0,3.857V4.5a.643.643,0,0,0,.643.643h.643v13.5a1.929,1.929,0,0,0,1.929,1.929H14.786a1.929,1.929,0,0,0,1.929-1.929V5.143h.643A.643.643,0,0,0,18,4.5V3.857A.643.643,0,0,0,17.357,3.214ZM6.9,2.045a.241.241,0,0,1,.207-.117h3.777a.241.241,0,0,1,.207.117l.7,1.169H6.2Zm7.881,16.6H3.214V5.143H14.786ZM6.268,16.714h.964a.482.482,0,0,0,.482-.482V7.554a.482.482,0,0,0-.482-.482H6.268a.482.482,0,0,0-.482.482v8.679A.482.482,0,0,0,6.268,16.714Z" fill="#f3115e"/>
</svg>
